HIERARCHY
ROOT hip
{
  OFFSET 0 0 0
  CHANNELS 6 Xposition Yposition Zposition Zrotation Yrotation Xrotation
  JOINT abdomen
  {
    OFFSET 0 20.6881 -0.73152
    CHANNELS 3 Zrotation Xrotation Yrotation
    JOINT chest
    {
      OFFSET 0 11.7043 -0.48768
      CHANNELS 3 Zrotation Xrotation Yrotation
      JOINT neck
      {
        OFFSET 0 22.1894 -2.19456
        CHANNELS 3 Zrotation Xrotation Yrotation
        JOINT head
        {
          OFFSET -0.24384 7.07133 1.2192
          CHANNELS 3 Zrotation Xrotation Yrotation
          JOINT leftEye
          {
            OFFSET 4.14528 8.04674 8.04672
            CHANNELS 3 Zrotation Xrotation Yrotation
            End Site
            {
              OFFSET 1 0 0
            }
          }
          JOINT rightEye
          {
            OFFSET -3.6576 8.04674 8.04672
            CHANNELS 3 Zrotation Xrotation Yrotation
            End Site
            {
              OFFSET 1 0 0
            }
          }
        }
      }
      JOINT rCollar
      {
        OFFSET -2.68224 19.2634 -4.8768
        CHANNELS 3 Zrotation Xrotation Yrotation
        JOINT rShldr
        {
          OFFSET -8.77824 -1.95073 1.46304
          CHANNELS 3 Zrotation Xrotation Yrotation
          JOINT rForeArm
          {
            OFFSET -28.1742 -1.7115 0.48768
            CHANNELS 3 Zrotation Xrotation Yrotation
            JOINT rHand
            {
              OFFSET -22.5879 0.773209 7.07136
              CHANNELS 3 Zrotation Xrotation Yrotation
              JOINT rThumb1
              {
                OFFSET -1.2192 -0.487915 3.41376
                CHANNELS 3 Zrotation Xrotation Yrotation
                JOINT rThumb2
                {
                  OFFSET -3.37035 -0.52449 3.41376
                  CHANNELS 3 Zrotation Xrotation Yrotation
                  End Site
                  {
                    OFFSET -1.78271 -1.18214 1.43049
                  }
                }
              }
              JOINT rIndex1
              {
                OFFSET -7.75947 0.938293 5.60832
                CHANNELS 3 Zrotation Xrotation Yrotation
                JOINT rIndex2
                {
                  OFFSET -2.54057 -0.884171 1.56538
                  CHANNELS 3 Zrotation Xrotation Yrotation
                  End Site
                  {
                    OFFSET -1.62519 -0.234802 1.16502
                  }
                }
              }
              JOINT rMid1
              {
                OFFSET -8.24714 1.18213 3.41376
                CHANNELS 3 Zrotation Xrotation Yrotation
                JOINT rMid2
                {
                  OFFSET -3.10165 -0.590103 1.0647
                  CHANNELS 3 Zrotation Xrotation Yrotation
                  End Site
                  {
                    OFFSET -2.48547 -0.328903 0.83742
                  }
                }
              }
              JOINT rRing1
              {
                OFFSET -8.82822 0.546677 1.51678
                CHANNELS 3 Zrotation Xrotation Yrotation
                JOINT rRing2
                {
                  OFFSET -2.60934 -0.819778 -0.0198488
                  CHANNELS 3 Zrotation Xrotation Yrotation
                  End Site
                  {
                    OFFSET -2.33842 -0.294052 0.168128
                  }
                }
              }
              JOINT rPinky1
              {
                OFFSET -8.27202 -0.0477905 -0.4584
                CHANNELS 3 Zrotation Xrotation Yrotation
                JOINT rPinky2
                {
                  OFFSET -1.82734 -0.647385 -0.700984
                  CHANNELS 3 Zrotation Xrotation Yrotation
                  End Site
                  {
                    OFFSET -1.69225 -0.51767 -0.607171
                  }
                }
              }
            }
          }
        }
      }
      JOINT lCollar
      {
        OFFSET 2.68224 19.2634 -4.8768
        CHANNELS 3 Zrotation Xrotation Yrotation
        JOINT lShldr
        {
          OFFSET 8.77824 -1.95073 1.46304
          CHANNELS 3 Zrotation Xrotation Yrotation
          JOINT lForeArm
          {
            OFFSET 28.1742 -1.7115 0.48768
            CHANNELS 3 Zrotation Xrotation Yrotation
            JOINT lHand
            {
              OFFSET 22.5879 0.773209 7.07136
              CHANNELS 3 Zrotation Xrotation Yrotation
              JOINT lThumb1
              {
                OFFSET 1.2192 -0.487915 3.41376
                CHANNELS 3 Zrotation Xrotation Yrotation
                JOINT lThumb2
                {
                  OFFSET 3.37035 -0.52449 3.41376
                  CHANNELS 3 Zrotation Xrotation Yrotation
                  End Site
                  {
                    OFFSET 1.78271 -1.18214 1.43049
                  }
                }
              }
              JOINT lIndex1
              {
                OFFSET 7.75947 0.938293 5.60832
                CHANNELS 3 Zrotation Xrotation Yrotation
                JOINT lIndex2
                {
                  OFFSET 2.54057 -0.884171 1.56538
                  CHANNELS 3 Zrotation Xrotation Yrotation
                  End Site
                  {
                    OFFSET 1.62519 -0.234802 1.16502
                  }
                }
              }
              JOINT lMid1
              {
                OFFSET 8.24714 1.18213 3.41376
                CHANNELS 3 Zrotation Xrotation Yrotation
                JOINT lMid2
                {
                  OFFSET 3.10165 -0.590103 1.0647
                  CHANNELS 3 Zrotation Xrotation Yrotation
                  End Site
                  {
                    OFFSET 2.48547 -0.328903 0.83742
                  }
                }
              }
              JOINT lRing1
              {
                OFFSET 8.82822 0.546677 1.51678
                CHANNELS 3 Zrotation Xrotation Yrotation
                JOINT lRing2
                {
                  OFFSET 2.60934 -0.819778 -0.0198488
                  CHANNELS 3 Zrotation Xrotation Yrotation
                  End Site
                  {
                    OFFSET 2.33842 -0.294052 0.168128
                  }
                }
              }
              JOINT lPinky1
              {
                OFFSET 8.27202 -0.0477905 -0.4584
                CHANNELS 3 Zrotation Xrotation Yrotation
                JOINT lPinky2
                {
                  OFFSET 1.82734 -0.647385 -0.700984
                  CHANNELS 3 Zrotation Xrotation Yrotation
                  End Site
                  {
                    OFFSET 1.69225 -0.51767 -0.607171
                  }
                }
              }
            }
          }
        }
      }
    }
  }
  JOINT rButtock
  {
    OFFSET -8.77824 4.35084 1.2192
    CHANNELS 3 Zrotation Xrotation Yrotation
    JOINT rThigh
    {
      OFFSET 0 -1.70687 -2.19456
      CHANNELS 3 Zrotation Xrotation Yrotation
      JOINT rShin
      {
        OFFSET 0 -36.8199 0.73152
        CHANNELS 3 Zrotation Xrotation Yrotation
        JOINT rFoot
        {
          OFFSET 0.73152 -45.1104 -5.12064
          CHANNELS 3 Zrotation Xrotation Yrotation
          End Site
          {
            OFFSET -1.1221 -3.69964 12.103
          }
        }
      }
    }
  }
  JOINT lButtock
  {
    OFFSET 8.77824 4.35084 1.2192
    CHANNELS 3 Zrotation Xrotation Yrotation
    JOINT lThigh
    {
      OFFSET 0 -1.70687 -2.19456
      CHANNELS 3 Zrotation Xrotation Yrotation
      JOINT lShin
      {
        OFFSET 0 -36.8199 0.73152
        CHANNELS 3 Zrotation Xrotation Yrotation
        JOINT lFoot
        {
          OFFSET -0.73152 -45.1104 -5.12064
          CHANNELS 3 Zrotation Xrotation Yrotation
          End Site
          {
            OFFSET 1.1221 -3.69964 12.103
          }
        }
      }
    }
  }
}
MOTION
Frames:	5
Frame Time:	0.03333
0.0 0.0 0.0 0.0 0.0 0.0 0.0 0.0 0.0 0.0 0.0 0.0 0.0 0.0 0.0 0.0 0.0 0.0 0.0 0.0 0.0 0.0 0.0 0.0 0.0 0.0 0.0 0.0 0.0 0.0 0.0 0.0 0.0 0.0 0.0 0.0 0.0 0.0 0.0 0.0 0.0 0.0 0.0 0.0 0.0 0.0 0.0 0.0 0.0 0.0 0.0 0.0 0.0 0.0 0.0 0.0 0.0 0.0 0.0 0.0 0.0 0.0 0.0 0.0 0.0 0.0 0.0 0.0 0.0 0.0 0.0 0.0 0.0 0.0 0.0 0.0 0.0 0.0 0.0 0.0 0.0 0.0 0.0 0.0 0.0 0.0 0.0 0.0 0.0 0.0 0.0 0.0 0.0 0.0 0.0 0.0 0.0 0.0 0.0 0.0 0.0 0.0 0.0 0.0 0.0 0.0 0.0 0.0 0.0 0.0 0.0 0.0 0.0 0.0 0.0 0.0 0.0 0.0 0.0 0.0 0.0 0.0 0.0 0.0 0.0 0.0 0.0 0.0 0.0 0.0 0.0 0.0
-4.7226 61.3699 1.347 -94.451378 81.776575 -93.865871 0.313606 14.732621 171.704468 -1.058902 3.185773 -161.532494 9.945989 24.009114 97.44145 -35.425855 12.630153 -96.93044 -0.001629 0.0 -0.001801 -0.001629 0.0 -0.001801 -159.002195 -39.165038 168.618842 -46.765792 -17.188125 -28.926564 -175.104078 1.5922 -118.496751 -8.359675 35.840862 2.693165 -153.076547 8.787357 87.158968 141.691932 -42.947092 85.384578 -45.723377 39.499072 35.890404 -158.903622 -2.502394 111.565665 -170.090898 -36.175887 145.351194 -167.795102 -18.131079 143.880209 0.005278 0.946257 0.296741 -156.624774 -28.950233 175.240479 6.361801 19.25436 5.689393 166.478911 84.678659 -126.209202 136.413949 48.853926 -140.489444 96.417881 20.232647 -68.755504 -20.473974 -34.270041 63.079999 -177.861409 -3.14128 -143.981638 166.92607 -4.599984 -89.793841 146.523679 4.449214 -74.041537 31.673371 33.305701 -23.680843 1.602567 12.834078 -1.192072 -4.744678 -14.652115 2.174672 -10.210455 -21.634212 1.556843 145.103881 4.067745 -179.591555 -11.488547 26.690218 5.941116 30.700957 -41.644067 29.673199 45.076105 -51.434478 46.111363 179.978274 75.750203 0.015608 -171.966184 47.358946 162.115615 78.9115 -66.659921 170.188267 101.503598 43.672323 1.501122 -179.982268 75.748359 -0.01287 -179.948114 13.591732 130.755708 28.520787 -38.775745 108.93127 129.134823 -28.362346 -130.345512
-7.2244 61.3413 1.9810999999999999 -115.828634 81.496236 -114.526515 -0.697949 15.937595 143.500812 -3.89457 2.29021 -134.079086 -10.706616 29.072782 -106.975521 39.062122 22.374298 96.144336 -0.005402 0.0 -0.003625 0.000315 -0.0 -0.003601 1.551156 -10.516244 -2.19347 -107.988997 -14.81055 -179.677883 0.637858 1.214816 -96.525348 157.980791 -36.328627 138.955417 -17.695813 15.994296 5.132056 -8.55055 7.542452 16.553224 -120.670785 25.688612 101.921906 -17.279418 34.88202 5.266175 5.49296 -17.060127 -2.422415 176.28208 -55.102572 139.182317 -0.000764 -0.157901 -0.048261 9.946499 5.172387 0.600663 9.516861 30.737217 8.276789 -156.391526 42.170887 -148.820365 154.6472 -74.216855 179.610377 54.618228 -19.000867 59.672766 174.68992 24.808695 141.681493 7.363886 13.89065 0.559916 -4.191034 -4.17296 0.494801 142.172583 -49.110901 -122.835625 -69.031845 -72.724034 -22.81642 158.278617 -18.429486 -115.236756 176.614614 -52.06166 -143.760965 -8.158426 -15.347223 1.051446 145.05108 6.481471 -178.829961 -11.015162 20.124345 6.637912 125.543211 -28.20227 123.296814 115.367439 -39.973941 114.434642 0.001973 0.001598 0.000726 6.043649 -30.410568 -179.764048 65.573942 -77.393991 165.998864 85.116828 31.178087 14.141392 0.000515 0.000366 -0.000239 -4.350176 -64.07287 -179.726946 -30.674528 -34.423222 -155.390099 -151.75501 -22.547342 64.067799
-9.7912 61.212 2.6494 -133.536871 80.210528 -131.535093 0.852118 16.334154 176.411688 -0.778592 4.015903 -168.529092 3.652741 14.94766 38.363686 -22.770057 -20.677479 -48.946688 -0.001902 0.0 -0.004622 0.00352 0.0 0.001806 -156.254298 -8.722681 162.913282 -43.569632 22.069205 -3.610558 -156.559157 21.468492 -126.282783 -2.695314 18.628828 1.396219 8.160356 -8.152982 -0.680716 -132.272423 -26.323237 118.736685 33.46989 -54.308002 -2.517876 -70.300637 51.534924 58.316845 2.947306 -8.944262 -1.46814 -1.303815 12.540651 2.14905 -0.004167 -0.43106 -0.135521 -156.515506 -38.816863 176.483001 172.259938 86.617266 -130.729448 31.484382 75.005799 2.017063 153.027043 10.127525 -158.639791 -114.535094 -29.720599 -157.18326 -7.301553 -43.133277 -43.485939 8.670584 17.41867 0.17977 163.784689 -1.461921 -89.474941 -10.157682 -54.457157 -16.616386 179.154399 -58.19561 -117.194033 -12.186916 5.768863 7.804969 154.729055 10.166649 -139.822036 173.471127 -34.566296 -143.417582 144.697038 -10.99825 175.618988 -11.53119 5.271484 8.270108 148.398182 22.954908 144.603481 47.512016 -50.219989 47.760284 0.0023 0.001198 0.002666 5.102141 -30.966708 15.92001 87.486387 74.261406 75.568286 -107.127887 27.858675 -155.378518 179.998555 75.74838 0.00282 175.78737 8.911513 -171.622416 -35.163877 -41.026503 -128.378119 -6.06266 -38.031799 -106.998948
-12.434000000000001 60.9112 3.4477 -145.082467 78.008048 -142.491008 1.736853 17.181094 174.845301 -1.029227 4.438263 -168.100024 7.411557 18.059976 65.577172 -35.190255 -5.917538 -75.693615 0.000954 -0.0 -0.001211 0.0006 -0.0 -0.000385 -159.090464 -41.390703 169.04954 128.234309 43.115119 -143.327913 8.925185 19.056728 62.841693 -11.02475 40.486727 3.473742 6.079911 -6.068946 -0.617573 -75.847352 29.222124 67.448815 -153.665914 -21.463486 121.797785 -165.798089 -25.607923 119.180543 -172.506987 -42.749515 145.045219 -6.249069 23.427181 5.464937 -145.11281 3.128218 179.888789 -146.695787 -47.641199 -168.824852 -13.847287 -26.169861 -13.182176 -149.860648 22.115125 -145.806115 -3.644283 -31.741892 6.15459 -80.430898 22.911601 30.893168 -177.54348 9.098026 -105.283945 -175.50121 -11.185522 -143.742126 168.294261 -5.973768 -89.878637 159.025558 -1.293991 -82.099086 168.767128 -46.708583 -121.582493 -140.96621 -68.123342 -80.634415 144.736191 30.400088 -132.236242 8.89075 28.994782 -7.512316 145.115466 -0.085355 179.102122 -8.7617 73.066107 -2.762967 -9.848318 31.995188 -8.530976 -166.417939 84.460786 126.303168 -0.002909 -0.000972 -0.003238 5.413219 -36.113459 -172.237615 -81.906113 -77.291047 -146.22353 -110.73084 -17.0267 -172.538044 179.984627 75.750614 0.012933 172.58414 7.680395 61.766154 60.625109 10.106268 59.118072 -80.742374 -32.363547 172.566651
